<?xml version="1.0" encoding="utf-8"?>
<!-- Generator: Adobe Illustrator 23.0.2, SVG Export Plug-In . SVG Version: 6.00 Build 0)  -->
<svg version="1.1" id="Layer_1" xmlns="http://www.w3.org/2000/svg" xmlns:xlink="http://www.w3.org/1999/xlink" x="0px" y="0px"
	 viewBox="0 0 158.0345154 40.7008247" style="enable-background:new 0 0 158.0345154 40.7008247;" xml:space="preserve">
<style type="text/css">
	.st0{fill-rule:evenodd;clip-rule:evenodd;}
</style>
<g>
	<path class="st0" d="M48.0172615,36.800827c4.5999985-0.9000015,7.4000015-5.5,8.0999985-10
		c0.2000008-1.1000004-1.2999992-1.7000008-2.2999992-1.2000008s-1.4000015,0.7999992-2.5999985,1.7999992
		c-2.2999992,1.8999996-3.7999992,4.3999996-4.4000015,7.4000015C46.61726,35.800827,47.4172592,36.9008255,48.0172615,36.800827
		L48.0172615,36.800827z M80.3172531,37.6008263c1.1999969,0.2999992,2.1999969-0.7000008,2.4000015-1.5999985
		c0.5999985-2,0.3000031-4.1000004-0.5-5.8999996c-0.3000031,0.2999992-2.9000015,3.3000011-3.6999969,4.4999981
		C78.0172577,35.2008247,78.9172592,37.2008247,80.3172531,37.6008263L80.3172531,37.6008263z M109.7172546,36.0008278
		c0.3000031,1,1.6999969,0.9000015,2.4000015,0.5c3.8000031-1.7000008,6.4000015-6,6.5999985-10.1000004
		c0-0.7999992-1.0999985-1.2999992-2-0.8999996c-2.1999969,0.7999992-3.6999969,2.3999996-5.0999985,4.3999996
		C110.3172531,31.800827,109.2172546,33.9008255,109.7172546,36.0008278L109.7172546,36.0008278z M144.1172638,26.2008266
		c0,0.1000004,3.8000031-2.7999992,6.1000061-5.6999989s3.3000031-6,3.3000031-6s-2.6000061,1.8999996-4.8999939,4.7999992
		C145.8172607,22.800827,144.1172638,26.2008266,144.1172638,26.2008266L144.1172638,26.2008266z M69.2172546,21.1008263
		l0.0999985-0.1000004c1-1.3999996,1.4000015-3.2999992,0-4c-0.1999969-0.1000004-0.5,0.5-0.5,0.7999992
		C68.5172577,19.0008259,68.5172577,20.1008263,69.2172546,21.1008263L69.2172546,21.1008263z M67.2172546,24.300827
		c-1.3000031-2.3999996-1.9000015-5.1000004-0.8000031-7.6000004c1-2.5,4.8000031-3.3999996,6.1999969-0.6000004
		c1.5,3.1000004-0.6999969,5.7999992-1.3000031,7c-0.1999969,0.3999996,1.8000031-0.2000008,2.5-0.2000008
		c1.5-0.1000004,2.4000015,1.3999996,1.6999969,2.6000004c-2.3000031,3.7999992-6.1999969,6.3999996-6.6999969,11.0000019
		c-0.0999985,1.0999985,2.6999969,0.5,6.0999985-2.2999992c0.0999985-0.0999985,6.0999985-7.3999996,10.6999969-13.1000004
		c1-1.2999992,4.5999985,0,3.4000015,1.7000008c-1,1.5-2,2.6000004-2.5999985,3.5
		c-0.9000015,1.2999992,1.4000015,2.2000008,1.1999969,7.1000004c1.6999969-1.2999992,4.5-3.1000004,4.5999985-3.2999992
		c2.9000015-6,5.9000015-13,8.8000031-19.2000008c0.6999969-1.5,4.5999985-0.8000002,3.6999969,1.1999998
		c-1.8000031,4.0999994-3.6999969,8.500001-5.4000015,12.500001c-0.0999985,0.2000008,3.0999985-1.7999992,3.3000031-2
		c2.1999969-0.7000008,3.0999985,1.2000008,3.4000015,2.6000004c0.8000031,3.2000008-2.6999969,7.6000004-4.3000031,10.6999989
		c-0.4000015,0.7999992,0.5,0.4000015,0.9000015,0.0999985c1.1999969-0.7000008,3.0999985-2.5,3.0999985-2.7000008
		c2.8000031-7.6000004,12-13.5,15.5999985-9.1000004c0.3000031-0.3999996,0.5999985-1,0.6999969-1c0.8000031-0.7999992,4-0.5,3.5,1
		c0,0.1000004-3.3000031,6.6000004-5.0999985,9.9999981c-0.4000015,0.7999992,0,2.7999992,1.0999985,2
		c1.6999969-1.2000008,4.1999969-3.7999992,4.3000031-4.0999985c2-5.6000023,8.5000076-16.9000015,17.2000046-21.5000019
		c1.5-0.8000002,4.1999969,0.1999998,3.3000031,2.5c-3,8-6.6000061,11.5-12,15.5
		c-0.1000061,0.1000004-0.1999969,0.1000004-0.1999969,0.2000008c-1.1000061,0.7999992-4.3999939,2.7000008-4.6000061,3.3999996
		c0,0.1000023-0.6999969,2.2999992-0.3000031,3.4000015c0.5,1.7000008,2.1999969,1.5,3.3999939,0.5999985
		c4.5-3.2999992,6.1999969-8.2999992,9.1000061-12.8999996c2.3000031-3.7000008,4.8999939-6.8999996,8.6000061-9.8999996
		c1.6999969-1.3999996,3.3999939-3.1999998,5.6999969-2.8999996c1,0.1000004,1.5,1.1999998,1.3999939,1.8000002
		c-1.6999969,7.000001-5.8999939,11.6999998-10.3000031,15.1999998c-2,1.6000004-4,3.1000004-5.8000031,4.3000011
		c-0.5,0.2999992-1.6000061,6.5999985,3,4.4000015c2.1999969-1,4.5-4.2999992,5.8000031-5.8999996
		c0.6999969-0.7999992,1.8000031,0.2999992,1.3000031,1.3999996c-1.3999939,2.7999992-3.1999969,5.0999985-5.6999969,7
		c-1.8000031,1.5-4.1000061,2.2000008-6.3000031,1.2999992c-1.6999969-0.7000008-2.3000031-2.4000015-2.6999969-3.7999992
		c-1.6000061,1.9000015-3.8999939,3.5-6.3000031,4.0999985c-3.7000046,1-5.2000046-1.5999985-5.3000107-3.7999992
		c-2.3000031,1.9000015-6.8000031,6.5999985-9.0999985,1.5999985c-2.5999985,1.4000015-7.0999985,4.5-10.1999969-0.5999985
		c-2.0999985,1.4000015-4.5999985,3.9000015-7,2.4000015c-1.5999985-1-2.3000031-2.7999992-1.5-4.4000015
		c1.3000031-2.9000015,3.9000015-7.6000004,4.0999985-7.8999996c0.3000031-0.6000004-0.5-0.8999996-1-0.5
		c-2.0999985,1.7000008-3.8000031,3.1000004-3.9000015,3.2999992c-1.0999985,2.3999996-3.0999985,6.6999989-4.0999985,8.8999996
		c-0.5999985,1.4000015-3.1999969,1.2999992-3.9000015,0.2999992c-1-1.4000015,0.4000015-2.7999992,1-4.0999985
		c-2.9000015,2-5,4.0999985-8.0999985,4.7000008c-2.5,0.5-5.0999985-0.5999985-6.0999985-2.9000015
		c-2.9000015,1.5-6.1999969,4.4000015-9.3000031,2.0999985c-2.6999969-2-1.3000031-7,4.9000015-13
		c0.0999985-0.1000004,0.0999985-0.2000008,0-0.2999992l-1-0.3999996
		c-2.3000031,3.1000004-7.1999969,10.6000004-10.1999969,12.6999989c-3.2999992,2.2000008-5.5,2.7999992-7,0
		c-3.2999992,2.4000015-7.7999992,2.7999992-9.6000023-1l0,0c-2.6999702,2.2000008-4.4999695,3.7000008-8.4999695,2.9000015
		c-1.9000015-0.4000015-2.8999996-2.2000008-3.1000004-4c-0.2999992-2.9000015,0.2000008-5.7999992,0.6000004-8.7000008
		c-2.5,4.2000008-4.7999992,8.9000015-8.2999992,12.5c-0.6000004,0.5999985-2.7000008,0.2000008-2.5-1
		c0.7999992-4.7000008,3.3999996-11.2999992,3.1000004-15.7000008C20.9172592,31.2008266,15.61726,43.300827,5.1172595,39.800827
		c-7.4000001-2.5-5.5999999-15.7999992,4.7000003-11.7000008c1.1999998,0.5,0.5,2.7000008-0.6000004,2.2999992
		c-5.0000005-2-6.1000004,6.2999992-1,6.5999985c3.1999998,0.2000008,5.4000006-1.7999992,6.5-3.5
		c6.8000002-10.2999992,8.8000002-20.2999992,16.7999992-32.2000008c1.0999985-1.7,3.9000015,0,3,1.8000001
		c-1.2999992,2.5-2.4000015,5.3000002-3.5,8.8000002c-1.2000008,4-1.8999996,7.6999989-1.7999992,11.6999989
		c5.3000031-8.0999966,10.6000023-15.9999962,18.2000008-22.5999966c0.2999992-0.3000001,1-0.2,1.5,0
		c0.7999992,0.3,0.9000015,1.1999999,0.5,1.8000001c-8,12.5-15.6000023,25.2999992-13.7999992,32.9000015
		c0.4000015,1.5999985,1.5,1.2999992,2.7999992,1.0999985s4.2000008-2.7999992,4.5-3.4000015
		c1.9000015-5,5.7000008-9,10.8999977-10.2999992c1.7000008-0.5,3.5,0,4.7999992,1.2000008
		c0.7000008-1.5,2.7999992-1.7000008,3.7999992-0.6000004c0.2000008,0.2000008,0.2000008,0.8999996,0,1.2000008
		c-1.9000015,3.6000004-3.5,6.6999989-5.4000015,10.0000019c-0.0999985,0.2999992,0.2000008,0.7999992,0.5999985,0.7000008
		C60.3172607,34.7008247,64.0172577,28.9008255,67.2172546,24.300827L67.2172546,24.300827z M132.4172668,26.4008255
		c0.1000061,0.1000004,3.5-2.2999992,5.8000031-5c1.8000031-2.1000004,4.1999969-6.6999998,4.1000061-6.8999996
		c-0.1999969-0.1000004-2.8999939,2.3999996-5.3000031,5.1000004
		C135.2172699,21.800827,132.4172668,26.4008255,132.4172668,26.4008255L132.4172668,26.4008255z"/>
</g>
</svg>
